<?xml version="1.0" encoding="utf-8"?>
<svg version="1.1" id="hp-glasses-svg" xmlns="http://www.w3.org/2000/svg" xmlns:xlink="http://www.w3.org/1999/xlink" x="0px" y="0px"
	 viewBox="0 0 481.1 327.5" style="enable-background:new 0 0 481.1 327.5;" xml:space="preserve">
<path d="M208.4,209.1c21.5-13.2,42.8-14,64.7-0.1c0.9-3.2,1.7-6,2.6-8.7c13.1-38.8,39.9-62.4,79.8-71
	c43.4-9.4,89.7,10.8,112.2,48.6c25,42,16.6,106.2-37.9,135.1c-40.3,21.3-80.5,19.6-118-7.7c-23.3-17-37.1-40.1-39.5-69.4
	c-0.1-1.5-0.8-3.3-1.8-4.4c-14-16.4-42.3-18.1-58.1-3.4c-1.8,1.7-3.5,4.3-3.7,6.6c-4.2,41-26.4,68.9-63.8,84
	C89.6,340.8,28.5,316,7.2,262.4c-17-42.9-4-91,39.9-118.8c49-31.1,114.4-17.6,146.6,30.7c6.2,9.3,9.1,20.9,13.5,31.5
	C207.6,206.8,207.9,207.9,208.4,209.1z M101.5,146.9c-26.9,1.3-50.4,12.7-67.1,36.6c-14,20-17.9,42.1-10.3,65.1
	c18.6,56.2,90.3,77.7,137.4,35.7c31.1-27.7,35.8-71.1,11.3-103.5C155.5,158.2,131.8,147.8,101.5,146.9z M460.8,235.2
	c-0.4-30.6-8.6-48.6-23.4-63.4c-30-29.9-77.1-32.8-111.5-7.6c-39.7,29.1-46.2,89.1-1.1,123.7c24.2,18.6,51.4,22.3,80.3,13.1
	C437.8,290.6,460.8,259.5,460.8,235.2z" fill="#bb0000"/>
<path id="XMLID_32_" d="M265.5,182.5c-16.2-25.2-32.3-50.4-49.2-76.6c3.4,1.1,5.6,1.7,9.1,2.8c-10.8-17.4-21-33.8-31.6-51
	c4.2,0.4,7.5,0.8,11.6,1.2c-9.7-17.3-19.2-34.1-28.8-51.3c8.2-2.6,15.9-5,24.3-7.6c15.7,34.2,31.2,68.3,46.8,102.4
	c-0.2,0.3-0.4,0.5-0.7,0.8c-3.2-2.3-6.3-4.6-9.5-7c-0.2,0.2-0.4,0.4-0.7,0.5c7.9,16.3,15.7,32.7,23.6,49c-0.2,0.2-0.4,0.4-0.6,0.6
	c-2.6-1.6-5.1-3.2-8.7-5.4c5.3,14.3,10.3,27.7,15.3,41.2C266,182.2,265.7,182.4,265.5,182.5z" fill="#bb0000"/>
</svg>
