<?xml version="1.0" encoding="utf-8"?>
<svg version="1.1" id="sorting-hat-svg" xmlns="http://www.w3.org/2000/svg" xmlns:xlink="http://www.w3.org/1999/xlink" x="0px" y="0px"
	 viewBox="0 0 399.3 334.1" style="enable-background:new 0 0 399.3 334.1;" xml:space="preserve">
<path id="XMLID_21_" d="M382.5,234.3c-5.9-0.3-12,0.1-17.9,0.8c-8.9,1-17.7,2.8-26.1,6.2c-5,2-9.9,4.2-15.1,5.9
	c-7.5,2.4-10.1,0.7-11.7-7c-0.7-3.4-2.1-6.4-4.2-9.1c-5.3-7-10.7-13.9-14.6-21.9c-3.6-7.3-7.4-14.5-11.3-21.6
	c-4.5-8.2-8.6-16.5-10.5-25.9c-1.2-6-3.3-11.8-0.9-18c2.3-6,1.2-11.3-3.3-16c-3.2-3.4-5.6-7.3-7.5-11.6
	c-5.1-11.8-10.3-23.6-15.5-35.4c-2.5-5.6-2.4-6,2.8-9.3c0.9-0.6,1.9-1.1,2.8-1.7c1.6-1,3.2-2,4.7-3.1c2.9-2.1,4-5,3.4-8.6
	c-0.4-2.6-1.1-5.1-1.5-7.6c-0.4-2.7,0.6-3.9,3.3-4c0.5,0,0.9,0,1.4-0.1c11.6-0.5,23.3-0.8,34.9-1.5c4.4-0.3,8.9-1.1,13.2-2.4
	c6.3-2,7.1-6.1,2-10.3c-4.1-3.4-8.7-6.2-13.4-8.6c-9.6-4.9-20-7.3-30.4-9.7c-8.1-1.9-16.1-3.9-21.8-10.6c-0.1-0.1-0.2-0.2-0.3-0.2
	c-2.9-2.3-6.1-3.3-9.8-2.7C228.2,1.5,221,2.4,213.9,4c-6.4,1.4-12.7,3.3-18.9,5.3c-5.7,1.9-9.9,5.6-11.7,11.6
	c-1.2,4-2.7,7.9-3.9,11.9c-2.4,8.1-4.8,16.2-7,24.4c-1.2,4.6-4,7.3-8.5,8.3c-4.5,1-7.4,3.9-9.6,7.9c-3.7,6.9-6,14.4-8,21.9
	c-2.1,8.4-5.3,16.2-12.1,21.9c-1.1,0.9-1.9,2.2-2.9,3.2c-5.9,5.7-7.2,12.8-5.6,20.5c1.3,6.6,2.9,13.1,4.3,19.6
	c1.4,6.8,1.8,13.4-0.5,20.2c-1.7,4.9-3.2,9.9-4,15c-1.2,7.4-2.9,14.5-7.5,20.7c-1.9,2.5-3.8,5-5.7,7.4c-2.9,3.7-4.7,7.9-4.5,12.6
	c0.3,6.2,0.8,12.4,1.5,18.6c0.6,5.6,1.8,11.2,1,16.9c-0.9,6.5-5.9,11.6-12.4,12c-4.8,0.3-9.6,0.2-14.4-0.3c-8.2-1-16.3-2.7-24.5-3.8
	c-12.7-1.6-25.2-1-37.2,4c-7.1,2.9-13.4,7-18.1,13.1c-4.6,6-5.8,12.9,1.7,19c6.6,5.3,14,8.7,22,11c17.9,5.3,36.4,6.9,55,7.2
	c9.9-0.6,19.7-1,29.6-1.9c21-1.8,41.7-5.2,61.9-11.2c18.1-5.4,36.1-11.2,54.2-16.8c22.8-7.2,46.1-11.5,70.1-11.6
	c7.7,0,15.6-0.7,23-2.6c18.4-4.7,36.5-10.3,54.7-15.6c5.6-1.6,11.1-3.7,15.9-7.3c3.1-2.3,5.8-4.9,6.9-8.7
	C401.5,249.4,394.9,234.9,382.5,234.3z M199.5,19.3c0.3-0.2,1.2,0.1,1.5,0.5c1.1,1.5,2.2,3.1,3,4.8c2.1,4.5,4,9,6.1,13.5
	c1.3,2.7,2.9,5.3,4.6,7.9c0.7,1.1,1.7,2.1,2.8,3c1.7,1.3,3,0.8,3.2-1.3c0.4-4.7,0.5-9.5,0.8-14.2c0.2-3.4,0.5-6.7,0.8-10.1
	c0-0.4,0.6-0.8,0.9-1.2c0.4,0.4,1,0.8,1,1.2c0.2,1.4,0.3,2.9,0.2,4.3c-0.8,7.2,1.5,13.3,6.3,18.6c3.3,3.6,6.6,7.2,9.9,10.7
	c1.4,1.5,2.7,2.9,3.9,4.6c-3.4-1.2-5.8-4.4-10-4.6c0.1,4.8,3.9,8,4.5,12.6c-0.7-0.5-1.5-0.9-2.1-1.6c-2.2-2.7-4.3-5.5-6.6-8.2
	c-1-1.2-2.2-2.3-3.4-3.5c-1-1-2.2-1-3.1,0c-1.2,1.4-2.2,3-3.2,4.6c-0.8,1.3-1.4,2.7-2.1,3.9c-1.7-3.2-3.1-6.3-5-9.2
	c-1.3-1.9-3.2-3.5-5-5c-1-0.8-1.7-1.6-1.4-2.9c0.7-3.3-0.3-6.3-1.5-9.3c-2.1-4.8-4.1-9.5-6.2-14.3c-0.4-1-0.7-2.1-0.9-3.2
	C198.6,20.3,199,19.6,199.5,19.3z M162,121.6c6.7-2.9,13.3-2.9,20,0c6.5,2.8,11.5,7.6,16,12.8c4.7,5.5,9.2,11.1,13.9,16.6
	c3.3,3.8,6.6,7.5,10.1,11.1c3.7,3.8,7.9,4.6,12.5,1.9c4.6-2.6,8.9-5.6,13.4-8.4c4-2.5,8.1-4.9,12.3-7.2c1.6-0.8,3.5-1.7,5.1-0.2
	c1.7,1.6,1.4,3.7,0.8,5.7c-2.1,6.8-5.9,12.4-11.9,16.4c-1.4,0.9-2.7,1.8-3.9,2.9c-2.3,1.9-2.4,3.5-0.6,5.9c1,1.3,2.1,2.5,3.1,3.7
	c0.5,0.6,0.9,1.3,1.4,2c-0.1,0.2-0.2,0.4-0.3,0.5c-1.7-0.7-3.5-1.2-5.1-2c-4.6-2.6-9.2-5.1-13.6-8c-3.7-2.5-7.5-3-11.7-1.7
	c-6.4,1.9-12.3,4.8-17.8,8.7c-3.9,2.8-8,5.4-12.1,7.8c-2.4,1.4-5.1,2.4-7.9,1.5c-0.1-0.2-0.2-0.4-0.3-0.6c2.7-1.9,5.4-3.8,8.1-5.6
	c2.9-2,5.8-3.9,8.7-5.9c1-0.7,1.9-1.4,2.7-2.2c2.7-2.6,2.3-4.9-1.3-6.1c-3.2-1.1-6.4-2.1-9.7-2.8c-5.7-1.3-10-4.2-12.3-9.7
	c-0.4-0.9-1-1.7-1.4-2.6c-2.7-5.5-7-9.2-12.6-11.6c-4.8-2-4.9-3.2-1.1-6.8c1.2-1.1,2.4-2.2,3.5-3.4c1.7-1.9,1.5-3.7-0.7-5
	c-2.4-1.5-5-2.7-7.5-4.2c-0.7-0.4-1.2-1.1-1.8-1.7C160.8,122.8,161.3,121.9,162,121.6z M214,225.8c-16.4,3.3-32.7,6.7-49,10.5
	c-5.6,1.3-10.8,4.1-16.2,6c-6.2,2.3-12.2,4.7-17.8,8.2c-3.4,2.1-4.7,1.9-7-1.4c-1.5-2.2-2.6-4.6-3.7-7c-0.2-0.5,0-1.6,0.4-1.9
	c0.4-0.3,1.4-0.1,2,0.1c0.5,0.1,1,0.4,1.4,0.8c5,4.2,10.4,3.8,15.7,1.1c11.4-5.8,22.7-11.8,34.1-17.7c9.3-4.9,18.6-9.9,28.1-14.5
	c9.4-4.5,19.6-6,29.9-6.6c8.6-0.5,17.3-0.3,25.9-0.5c5.2-0.2,9,1.7,11.8,6.1c1.7,2.7,3.6,5.2,5.5,7.8c1.6,2.2,3.8,3.5,6.5,4
	c1.9,0.4,2.6-0.4,2-2.3c-0.3-0.9-0.7-1.8-1-2.7c0.2-0.2,0.4-0.3,0.5-0.5c1.5,1.2,3.2,2.2,4.3,3.7c2.4,3.2,4.5,6.6,6.6,10.1
	c0.3,0.6,0.1,1.5,0.2,2.2c-0.7,0-1.6,0.2-2.2,0c-1.2-0.4-2.2-1-3.3-1.7c-9.1-5.5-19-7.8-29.5-8.3C243.9,220.6,228.9,222.8,214,225.8
	z M389.6,260.2c-2.5,2.2-5.3,4.3-8.4,5.5c-5,2-10.2,3.5-15.4,4.6c-8.2,1.8-16.3,3.7-24.2,6.7c-13.8,5.2-28.2,7.6-42.8,9.1
	c-4.3,0.4-8.5,1-12.8,1.4c-2,0.2-4.1,0-6.2,0c-0.1-0.3-0.2-0.6-0.4-0.9c0.6-0.6,1.1-1.3,1.8-1.6c6.3-3.5,12.5-7.2,19-10.2
	c15-7.1,30-14,45.1-20.8c6.8-3.1,13.8-5.8,21.2-7c6.4-1,12.7-0.5,18.6,2.5c1.6,0.8,3,2,4.3,3.3C392.1,255.3,392.3,257.9,389.6,260.2
	z"/>
</svg>
